<?xml version="1.0" encoding="utf-8"?>
<!-- Generator: Adobe Illustrator 19.0.0, SVG Export Plug-In . SVG Version: 6.00 Build 0)  -->
<svg version="1.1" id="Слой_1" xmlns="http://www.w3.org/2000/svg" xmlns:xlink="http://www.w3.org/1999/xlink" x="0px" y="0px"
	 width="25px" height="20px" viewBox="0 0 25 20" style="enable-background:new 0 0 25 20;" xml:space="preserve">
<style type="text/css">
	.st0{fill:#FFFFFF;}
</style>
<g>
	<path class="st0" d="M12.451,19.936l-0.134-0.054L0,14.968V5.033l12.452-4.969L25,5.084v9.884L12.451,19.936z M0.727,14.475
		l11.726,4.679l11.821-4.68V5.576l-11.822-4.73L0.727,5.525V14.475z"/>
	<g>
		<path class="st0" d="M11.6,3.77l0.158,0.025C11.748,3.882,11.719,3.95,11.671,4c-0.048,0.049-0.113,0.08-0.196,0.093
			c-0.102,0.016-0.192-0.007-0.268-0.066c-0.077-0.06-0.124-0.151-0.143-0.272c-0.02-0.128-0.002-0.233,0.054-0.314
			s0.137-0.13,0.245-0.146c0.094-0.014,0.175,0.002,0.243,0.049c0.04,0.028,0.074,0.071,0.101,0.13l-0.149,0.06
			c-0.015-0.039-0.039-0.067-0.072-0.086c-0.032-0.019-0.069-0.025-0.111-0.019c-0.057,0.009-0.1,0.036-0.13,0.083
			c-0.029,0.046-0.037,0.116-0.023,0.208c0.015,0.097,0.043,0.164,0.084,0.2c0.041,0.036,0.09,0.05,0.146,0.041
			c0.041-0.006,0.075-0.025,0.101-0.056C11.58,3.873,11.595,3.828,11.6,3.77z"/>
		<path class="st0" d="M12.823,4.021L12.651,4.02l-0.067-0.178l-0.312-0.003l-0.066,0.177L12.04,4.015l0.31-0.778l0.167,0.001
			L12.823,4.021z M12.535,3.71L12.43,3.42l-0.108,0.289L12.535,3.71z"/>
		<path class="st0" d="M13.103,4.037l0.092-0.775l0.329,0.039c0.083,0.01,0.142,0.024,0.178,0.042
			c0.036,0.018,0.063,0.047,0.081,0.085c0.018,0.038,0.025,0.08,0.019,0.126c-0.007,0.058-0.03,0.104-0.068,0.138
			c-0.039,0.034-0.093,0.052-0.162,0.053c0.031,0.024,0.057,0.049,0.076,0.075c0.019,0.026,0.044,0.072,0.074,0.136L13.8,4.12
			l-0.187-0.022L13.52,3.915c-0.033-0.065-0.056-0.106-0.069-0.124c-0.013-0.017-0.027-0.03-0.043-0.038
			c-0.016-0.008-0.042-0.014-0.078-0.018l-0.032-0.004L13.26,4.055L13.103,4.037z M13.313,3.608l0.116,0.014
			c0.075,0.009,0.122,0.011,0.142,0.007c0.019-0.004,0.035-0.013,0.048-0.028c0.012-0.014,0.02-0.033,0.023-0.056
			c0.003-0.026-0.001-0.048-0.013-0.066c-0.012-0.018-0.03-0.03-0.055-0.037c-0.012-0.003-0.05-0.009-0.114-0.016l-0.122-0.015
			L13.313,3.608z"/>
	</g>
	<g>
		<path class="st0" d="M9.417,16.085l0.167,0.028c-0.001,0.047,0.011,0.084,0.036,0.113c0.025,0.028,0.063,0.049,0.114,0.062
			c0.054,0.014,0.097,0.015,0.13,0.003c0.032-0.012,0.051-0.03,0.058-0.055c0.004-0.016,0.002-0.031-0.007-0.045
			c-0.009-0.014-0.027-0.029-0.053-0.044c-0.018-0.01-0.061-0.032-0.128-0.063c-0.086-0.041-0.144-0.079-0.173-0.114
			c-0.042-0.05-0.056-0.101-0.043-0.155c0.009-0.034,0.029-0.063,0.06-0.087c0.032-0.024,0.072-0.038,0.121-0.042
			s0.106,0.002,0.17,0.018c0.105,0.026,0.179,0.064,0.223,0.115c0.044,0.05,0.059,0.107,0.046,0.169l-0.17-0.036
			c0.001-0.036-0.008-0.065-0.028-0.086c-0.02-0.021-0.054-0.038-0.101-0.049c-0.049-0.012-0.089-0.014-0.121-0.004
			c-0.02,0.006-0.033,0.018-0.037,0.035c-0.004,0.016,0.001,0.032,0.015,0.047c0.018,0.02,0.065,0.048,0.144,0.084
			c0.078,0.036,0.135,0.067,0.17,0.094c0.035,0.026,0.06,0.057,0.075,0.091c0.015,0.034,0.017,0.073,0.007,0.115
			c-0.01,0.039-0.032,0.071-0.067,0.098c-0.035,0.027-0.079,0.043-0.131,0.047c-0.053,0.004-0.115-0.003-0.188-0.021
			c-0.105-0.026-0.182-0.066-0.228-0.12C9.428,16.229,9.409,16.163,9.417,16.085z"/>
		<path class="st0" d="M10.364,16.558l0.143-0.678l0.624,0.132l-0.024,0.115l-0.454-0.096l-0.032,0.15l0.423,0.089l-0.024,0.114
			l-0.423-0.089l-0.039,0.185l0.47,0.099l-0.024,0.114L10.364,16.558z"/>
		<path class="st0" d="M11.378,16.754l0.062-0.691l0.364,0.033c0.092,0.008,0.158,0.02,0.198,0.036
			c0.04,0.016,0.072,0.041,0.094,0.075c0.022,0.034,0.031,0.071,0.028,0.112c-0.005,0.052-0.027,0.093-0.068,0.123
			c-0.041,0.03-0.099,0.047-0.175,0.049c0.036,0.021,0.065,0.043,0.087,0.066c0.022,0.023,0.052,0.063,0.088,0.121l0.093,0.144
			l-0.207-0.019l-0.112-0.161c-0.04-0.058-0.067-0.094-0.082-0.11c-0.015-0.015-0.032-0.027-0.049-0.033
			c-0.018-0.007-0.047-0.012-0.086-0.016l-0.035-0.003l-0.026,0.288L11.378,16.754z M11.587,16.371l0.128,0.011
			c0.083,0.007,0.135,0.009,0.156,0.005c0.021-0.004,0.038-0.012,0.051-0.025c0.013-0.013,0.02-0.03,0.022-0.05
			c0.002-0.023-0.004-0.043-0.018-0.058c-0.014-0.016-0.035-0.027-0.063-0.033c-0.014-0.003-0.056-0.007-0.126-0.014l-0.135-0.012
			L11.587,16.371z"/>
		<path class="st0" d="M12.685,16.806l-0.348-0.674l0.188-0.011l0.248,0.499l0.18-0.525l0.184-0.011l-0.266,0.71L12.685,16.806z"/>
		<path class="st0" d="M13.476,16.731l-0.102-0.686l0.172-0.026l0.102,0.686L13.476,16.731z"/>
		<path class="st0" d="M14.497,16.282l0.174,0.007c-0.01,0.079-0.04,0.143-0.091,0.192c-0.051,0.048-0.122,0.082-0.212,0.101
			c-0.112,0.024-0.21,0.012-0.295-0.034s-0.139-0.123-0.161-0.23c-0.024-0.113-0.006-0.208,0.053-0.286
			c0.059-0.078,0.148-0.129,0.266-0.154c0.103-0.022,0.192-0.015,0.266,0.021c0.044,0.021,0.082,0.057,0.113,0.107l-0.161,0.068
			c-0.017-0.033-0.044-0.056-0.08-0.07c-0.036-0.014-0.076-0.016-0.122-0.006c-0.062,0.013-0.109,0.042-0.14,0.086
			c-0.031,0.044-0.038,0.107-0.021,0.188c0.018,0.086,0.05,0.143,0.096,0.171c0.046,0.028,0.1,0.036,0.161,0.023
			c0.045-0.01,0.082-0.029,0.109-0.059C14.478,16.376,14.493,16.335,14.497,16.282z"/>
		<path class="st0" d="M15.029,16.418l-0.142-0.679l0.624-0.13l0.024,0.115l-0.454,0.095l0.031,0.15l0.423-0.088l0.024,0.114
			l-0.423,0.088l0.039,0.185l0.47-0.098l0.024,0.114L15.029,16.418z"/>
	</g>
	<g>
		<path class="st0" d="M4.368,13.717H2.495V6.262h0.589v6.866h1.285V13.717z"/>
		<path class="st0" d="M7.87,13.717H7.222l-0.128-2.03H6.555l-0.137,2.03H5.771l0.579-7.454h0.942L7.87,13.717z M7.056,11.098
			L6.82,7.606l-0.226,3.492H7.056z"/>
		<path class="st0" d="M11.391,13.717h-0.589v-3.413l-0.863-0.01v3.423H9.351V6.262h1.609l0.432,0.589v2.825L11.077,9.98
			l0.314,0.245V13.717z M10.802,9.646V6.841H9.939v2.805H10.802z"/>
		<path class="st0" d="M14.843,13.217l-0.422,0.5h-1.187l-0.422-0.5V11.52h0.588v1.55h0.853v-2.776h-1l-0.441-0.589V6.851
			l0.441-0.589h1.157l0.432,0.589V8.44h-0.588V6.841h-0.853v2.874h1.01l0.432,0.589V13.217z"/>
		<path class="st0" d="M18.404,13.217l-0.422,0.5h-1.187l-0.422-0.5V6.851l0.441-0.589h1.157l0.432,0.589V13.217z M17.815,13.069
			V6.841h-0.853v6.228H17.815z"/>
		<path class="st0" d="M22.366,13.717h-0.824L20.669,7.94v5.777h-0.588V6.262h0.942l0.755,4.983V6.262h0.588V13.717z"/>
	</g>
	<g>
		<path class="st0" d="M23.254,6.048v0.155h-0.064V5.815h0.11c0.05,0,0.087,0.009,0.111,0.028c0.024,0.019,0.036,0.047,0.036,0.085
			c0,0.048-0.025,0.083-0.076,0.103l0.11,0.172H23.41l-0.093-0.155H23.254z M23.254,5.996h0.044c0.03,0,0.051-0.005,0.064-0.016
			c0.013-0.011,0.02-0.027,0.02-0.049c0-0.022-0.007-0.038-0.022-0.047c-0.014-0.01-0.036-0.014-0.065-0.014h-0.042V5.996z"/>
	</g>
	<path class="st0" d="M23.321,6.458c-0.25,0-0.454-0.204-0.454-0.454S23.07,5.55,23.321,5.55c0.25,0,0.454,0.204,0.454,0.454
		S23.571,6.458,23.321,6.458z M23.321,5.61c-0.217,0-0.394,0.177-0.394,0.394c0,0.217,0.177,0.394,0.394,0.394
		s0.394-0.177,0.394-0.394C23.714,5.787,23.538,5.61,23.321,5.61z"/>
</g>
</svg>
