{
  "asset": {
    "version": "2.0",
    "generator": "Sketchup glTF Exporter v1.2.6 by Centaur"
  },
  "scene": 0,
  "scenes": [
    {
      "nodes": [
        0
      ]
    }
  ],
  "samplers": [
    {
    }
  ],
  "nodes": [
    {
      "name": "root",
      "children": [
        1
      ]
    },
    {
      "name": "VOLVO C30",
      "children": [
        2
      ]
    },
    {
      "children": [
        3,
        4,
        5,
        6,
        7,
        8,
        9,
        10,
        11,
        12,
        13,
        14,
        15,
        16,
        17,
        18,
        19,
        20,
        21,
        22,
        25,
        28
      ]
    },
    {
      "name": "3D_Object_#11",
      "mesh": 0
    },
    {
      "name": "3D_Object_#12",
      "mesh": 1
    },
    {
      "name": "3D_Object_#13",
      "mesh": 2
    },
    {
      "name": "3D_Object_#15",
      "mesh": 3
    },
    {
      "name": "3D_Object_#16",
      "mesh": 4
    },
    {
      "name": "3D_Object_#17",
      "mesh": 5
    },
    {
      "name": "3D_Object_#18",
      "mesh": 6
    },
    {
      "name": "3D_Object_#20",
      "mesh": 7
    },
    {
      "name": "3D_Object_",
      "mesh": 8
    },
    {
      "name": "3D_Object_#1",
      "mesh": 9
    },
    {
      "name": "3D_Object_#2",
      "mesh": 10
    },
    {
      "name": "3D_Object_#3",
      "mesh": 11
    },
    {
      "name": "3D_Object_#5",
      "mesh": 12
    },
    {
      "name": "3D_Object_#6",
      "mesh": 13
    },
    {
      "name": "3D_Object_#7",
      "mesh": 14
    },
    {
      "name": "3D_Object_#8",
      "mesh": 15
    },
    {
      "name": "3D_Object_#9",
      "mesh": 16
    },
    {
      "name": "3D_Object_#10",
      "mesh": 17
    },
    {
      "mesh": 18
    },
    {
      "children": [
        23,
        24
      ]
    },
    {
      "name": "3D_Object_#21",
      "mesh": 19
    },
    {
      "name": "3D_Object_#21",
      "mesh": 20
    },
    {
      "children": [
        26,
        27
      ]
    },
    {
      "name": "3D_Object_#21",
      "mesh": 21
    },
    {
      "name": "3D_Object_#21",
      "mesh": 22
    },
    {
      "name": "3D_Object_#14",
      "mesh": 23
    }
  ],
  "materials": [
    {
      "pbrMetallicRoughness": {
        "baseColorFactor": [
          0.0278,
          0.0278,
          0.0278,
          0.59
        ],
        "metallicFactor": 0.1,
        "roughnessFactor": 0.9
      },
      "name": "Translucent_Glass_Gray",
      "doubleSided": true,
      "alphaMode": "BLEND"
    },
    {
      "pbrMetallicRoughness": {
        "baseColorFactor": [
          0.5732,
          0.5732,
          0.5732,
          1.0
        ],
        "metallicFactor": 0.1,
        "roughnessFactor": 0.9
      },
      "name": "Color_002"
    },
    {
      "pbrMetallicRoughness": {
        "baseColorFactor": [
          0.0037,
          0.0037,
          0.0037,
          1.0
        ],
        "metallicFactor": 0.1,
        "roughnessFactor": 0.9
      },
      "name": "Color_009"
    },
    {
      "pbrMetallicRoughness": {
        "baseColorFactor": [
          0.142,
          0.142,
          0.142,
          1.0
        ],
        "metallicFactor": 0.1,
        "roughnessFactor": 0.9
      },
      "name": "<DimGray>"
    },
    {
      "pbrMetallicRoughness": {
        "baseColorFactor": [
          1.0,
          0.0,
          0.0,
          0.75
        ],
        "metallicFactor": 0.1,
        "roughnessFactor": 0.9
      },
      "name": "Color_A01",
      "doubleSided": true,
      "alphaMode": "BLEND"
    },
    {
      "pbrMetallicRoughness": {
        "baseColorFactor": [
          0.0037,
          0.0037,
          0.0037,
          0.91
        ],
        "metallicFactor": 0.1,
        "roughnessFactor": 0.9
      },
      "name": "Translucent_Glass_Green_Dark",
      "doubleSided": true,
      "alphaMode": "BLEND"
    },
    {
      "pbrMetallicRoughness": {
        "baseColorFactor": [
          0.0004,
          0.0001,
          0.0,
          1.0
        ],
        "metallicFactor": 0.1,
        "roughnessFactor": 0.9
      },
      "name": "<Burnt Umber>1"
    },
    {
      "pbrMetallicRoughness": {
        "baseColorFactor": [
          0.6121,
          0.029,
          0.0,
          1.0
        ],
        "metallicFactor": 0.1,
        "roughnessFactor": 0.9
      },
      "name": "Color_B06"
    }
  ],
  "meshes": [
    {
      "primitives": [
        {
          "attributes": {
            "POSITION": 0,
            "NORMAL": 1
          },
          "indices": 2,
          "mode": 4,
          "material": 0
        },
        {
          "attributes": {
            "POSITION": 0,
            "NORMAL": 1
          },
          "indices": 3,
          "mode": 4,
          "material": 1
        },
        {
          "attributes": {
            "POSITION": 0,
            "NORMAL": 1
          },
          "indices": 4,
          "mode": 4,
          "material": 2
        },
        {
          "attributes": {
            "POSITION": 0,
            "NORMAL": 1
          },
          "indices": 5,
          "mode": 4,
          "material": 3
        }
      ]
    },
    {
      "primitives": [
        {
          "attributes": {
            "POSITION": 0,
            "NORMAL": 1
          },
          "indices": 6,
          "mode": 4,
          "material": 0
        },
        {
          "attributes": {
            "POSITION": 0,
            "NORMAL": 1
          },
          "indices": 7,
          "mode": 4,
          "material": 1
        },
        {
          "attributes": {
            "POSITION": 0,
            "NORMAL": 1
          },
          "indices": 8,
          "mode": 4,
          "material": 2
        },
        {
          "attributes": {
            "POSITION": 0,
            "NORMAL": 1
          },
          "indices": 9,
          "mode": 4,
          "material": 3
        }
      ]
    },
    {
      "primitives": [
        {
          "attributes": {
            "POSITION": 0,
            "NORMAL": 1
          },
          "indices": 10,
          "mode": 4,
          "material": 3
        }
      ]
    },
    {
      "primitives": [
        {
          "attributes": {
            "POSITION": 0,
            "NORMAL": 1
          },
          "indices": 11,
          "mode": 4,
          "material": 3
        }
      ]
    },
    {
      "primitives": [
        {
          "attributes": {
            "POSITION": 0,
            "NORMAL": 1
          },
          "indices": 12,
          "mode": 4,
          "material": 3
        }
      ]
    },
    {
      "primitives": [
        {
          "attributes": {
            "POSITION": 0,
            "NORMAL": 1
          },
          "indices": 13,
          "mode": 4,
          "material": 4
        },
        {
          "attributes": {
            "POSITION": 0,
            "NORMAL": 1
          },
          "indices": 14,
          "mode": 4,
          "material": 0
        },
        {
          "attributes": {
            "POSITION": 0,
            "NORMAL": 1
          },
          "indices": 15,
          "mode": 4,
          "material": 3
        }
      ]
    },
    {
      "primitives": [
        {
          "attributes": {
            "POSITION": 0,
            "NORMAL": 1
          },
          "indices": 16,
          "mode": 4,
          "material": 3
        }
      ]
    },
    {
      "primitives": [
        {
          "attributes": {
            "POSITION": 0,
            "NORMAL": 1
          },
          "indices": 17,
          "mode": 4,
          "material": 0
        }
      ]
    },
    {
      "primitives": [
        {
          "attributes": {
            "POSITION": 0,
            "NORMAL": 1
          },
          "indices": 18,
          "mode": 4,
          "material": 3
        }
      ]
    },
    {
      "primitives": [
        {
          "attributes": {
            "POSITION": 0,
            "NORMAL": 1
          },
          "indices": 19,
          "mode": 4,
          "material": 3
        }
      ]
    },
    {
      "primitives": [
        {
          "attributes": {
            "POSITION": 0,
            "NORMAL": 1
          },
          "indices": 20,
          "mode": 4,
          "material": 0
        },
        {
          "attributes": {
            "POSITION": 0,
            "NORMAL": 1
          },
          "indices": 21,
          "mode": 4,
          "material": 2
        },
        {
          "attributes": {
            "POSITION": 0,
            "NORMAL": 1
          },
          "indices": 22,
          "mode": 4,
          "material": 5
        }
      ]
    },
    {
      "primitives": [
        {
          "attributes": {
            "POSITION": 0,
            "NORMAL": 1
          },
          "indices": 23,
          "mode": 4,
          "material": 3
        }
      ]
    },
    {
      "primitives": [
        {
          "attributes": {
            "POSITION": 0,
            "NORMAL": 1
          },
          "indices": 24,
          "mode": 4,
          "material": 3
        },
        {
          "attributes": {
            "POSITION": 0,
            "NORMAL": 1
          },
          "indices": 25,
          "mode": 4,
          "material": 2
        },
        {
          "attributes": {
            "POSITION": 0,
            "NORMAL": 1
          },
          "indices": 26,
          "mode": 4,
          "material": 4
        },
        {
          "attributes": {
            "POSITION": 0,
            "NORMAL": 1
          },
          "indices": 27,
          "mode": 4,
          "material": 6
        }
      ]
    },
    {
      "primitives": [
        {
          "attributes": {
            "POSITION": 0,
            "NORMAL": 1
          },
          "indices": 28,
          "mode": 4,
          "material": 3
        },
        {
          "attributes": {
            "POSITION": 0,
            "NORMAL": 1
          },
          "indices": 29,
          "mode": 4,
          "material": 2
        },
        {
          "attributes": {
            "POSITION": 0,
            "NORMAL": 1
          },
          "indices": 30,
          "mode": 4,
          "material": 4
        },
        {
          "attributes": {
            "POSITION": 0,
            "NORMAL": 1
          },
          "indices": 31,
          "mode": 4,
          "material": 1
        },
        {
          "attributes": {
            "POSITION": 0,
            "NORMAL": 1
          },
          "indices": 32,
          "mode": 4,
          "material": 7
        }
      ]
    },
    {
      "primitives": [
        {
          "attributes": {
            "POSITION": 0,
            "NORMAL": 1
          },
          "indices": 33,
          "mode": 4,
          "material": 3
        }
      ]
    },
    {
      "primitives": [
        {
          "attributes": {
            "POSITION": 0,
            "NORMAL": 1
          },
          "indices": 34,
          "mode": 4,
          "material": 3
        }
      ]
    },
    {
      "primitives": [
        {
          "attributes": {
            "POSITION": 0,
            "NORMAL": 1
          },
          "indices": 35,
          "mode": 4,
          "material": 3
        }
      ]
    },
    {
      "primitives": [
        {
          "attributes": {
            "POSITION": 0,
            "NORMAL": 1
          },
          "indices": 36,
          "mode": 4,
          "material": 3
        }
      ]
    },
    {
      "primitives": [
        {
          "attributes": {
            "POSITION": 0,
            "NORMAL": 1
          },
          "indices": 37,
          "mode": 4,
          "material": 3
        },
        {
          "attributes": {
            "POSITION": 0,
            "NORMAL": 1
          },
          "indices": 38,
          "mode": 4,
          "material": 2
        },
        {
          "attributes": {
            "POSITION": 0,
            "NORMAL": 1
          },
          "indices": 39,
          "mode": 4,
          "material": 6
        },
        {
          "attributes": {
            "POSITION": 0,
            "NORMAL": 1
          },
          "indices": 40,
          "mode": 4,
          "material": 5
        }
      ]
    },
    {
      "primitives": [
        {
          "attributes": {
            "POSITION": 0,
            "NORMAL": 1
          },
          "indices": 41,
          "mode": 4,
          "material": 2
        },
        {
          "attributes": {
            "POSITION": 0,
            "NORMAL": 1
          },
          "indices": 42,
          "mode": 4,
          "material": 1
        },
        {
          "attributes": {
            "POSITION": 0,
            "NORMAL": 1
          },
          "indices": 43,
          "mode": 4,
          "material": 3
        }
      ]
    },
    {
      "primitives": [
        {
          "attributes": {
            "POSITION": 0,
            "NORMAL": 1
          },
          "indices": 44,
          "mode": 4,
          "material": 2
        },
        {
          "attributes": {
            "POSITION": 0,
            "NORMAL": 1
          },
          "indices": 45,
          "mode": 4,
          "material": 1
        },
        {
          "attributes": {
            "POSITION": 0,
            "NORMAL": 1
          },
          "indices": 46,
          "mode": 4,
          "material": 3
        }
      ]
    },
    {
      "primitives": [
        {
          "attributes": {
            "POSITION": 0,
            "NORMAL": 1
          },
          "indices": 47,
          "mode": 4,
          "material": 2
        },
        {
          "attributes": {
            "POSITION": 0,
            "NORMAL": 1
          },
          "indices": 48,
          "mode": 4,
          "material": 1
        },
        {
          "attributes": {
            "POSITION": 0,
            "NORMAL": 1
          },
          "indices": 49,
          "mode": 4,
          "material": 3
        }
      ]
    },
    {
      "primitives": [
        {
          "attributes": {
            "POSITION": 0,
            "NORMAL": 1
          },
          "indices": 50,
          "mode": 4,
          "material": 2
        },
        {
          "attributes": {
            "POSITION": 0,
            "NORMAL": 1
          },
          "indices": 51,
          "mode": 4,
          "material": 1
        },
        {
          "attributes": {
            "POSITION": 0,
            "NORMAL": 1
          },
          "indices": 52,
          "mode": 4,
          "material": 3
        }
      ]
    },
    {
      "primitives": [
        {
          "attributes": {
            "POSITION": 0,
            "NORMAL": 1
          },
          "indices": 53,
          "mode": 4,
          "material": 3
        },
        {
          "attributes": {
            "POSITION": 0,
            "NORMAL": 1
          },
          "indices": 54,
          "mode": 4,
          "material": 2
        }
      ]
    }
  ],
  "accessors": [
    {
      "bufferView": 0,
      "componentType": 5126,
      "count": 51585,
      "type": "VEC3",
      "min": [
        -2.2226464586721786,
        0.20669267805166314,
        -10.737906791718679
      ],
      "max": [
        0.10272295392619935,
        1.969458461100837,
        -5.766129417481055
      ]
    },
    {
      "bufferView": 1,
      "componentType": 5126,
      "count": 51585,
      "type": "VEC3",
      "min": [
        -1.0,
        -0.9999999999999988,
        -1.0
      ],
      "max": [
        1.0,
        0.9999999999999732,
        1.0
      ]
    },
    {
      "bufferView": 2,
      "componentType": 5123,
      "count": 33,
      "type": "SCALAR"
    },
    {
      "bufferView": 2,
      "componentType": 5123,
      "count": 27,
      "type": "SCALAR",
      "byteOffset": 66
    },
    {
      "bufferView": 2,
      "componentType": 5123,
      "count": 2535,
      "type": "SCALAR",
      "byteOffset": 120
    },
    {
      "bufferView": 2,
      "componentType": 5123,
      "count": 22236,
      "type": "SCALAR",
      "byteOffset": 5190
    },
    {
      "bufferView": 2,
      "componentType": 5123,
      "count": 33,
      "type": "SCALAR",
      "byteOffset": 49662
    },
    {
      "bufferView": 2,
      "componentType": 5123,
      "count": 27,
      "type": "SCALAR",
      "byteOffset": 49728
    },
    {
      "bufferView": 2,
      "componentType": 5123,
      "count": 2613,
      "type": "SCALAR",
      "byteOffset": 49782
    },
    {
      "bufferView": 2,
      "componentType": 5123,
      "count": 22020,
      "type": "SCALAR",
      "byteOffset": 55008
    },
    {
      "bufferView": 2,
      "componentType": 5123,
      "count": 432,
      "type": "SCALAR",
      "byteOffset": 99048
    },
    {
      "bufferView": 2,
      "componentType": 5123,
      "count": 12123,
      "type": "SCALAR",
      "byteOffset": 99912
    },
    {
      "bufferView": 2,
      "componentType": 5123,
      "count": 36408,
      "type": "SCALAR",
      "byteOffset": 124158
    },
    {
      "bufferView": 2,
      "componentType": 5123,
      "count": 432,
      "type": "SCALAR",
      "byteOffset": 196974
    },
    {
      "bufferView": 2,
      "componentType": 5123,
      "count": 198,
      "type": "SCALAR",
      "byteOffset": 197838
    },
    {
      "bufferView": 2,
      "componentType": 5123,
      "count": 216,
      "type": "SCALAR",
      "byteOffset": 198234
    },
    {
      "bufferView": 2,
      "componentType": 5123,
      "count": 7476,
      "type": "SCALAR",
      "byteOffset": 198666
    },
    {
      "bufferView": 2,
      "componentType": 5123,
      "count": 204,
      "type": "SCALAR",
      "byteOffset": 213618
    },
    {
      "bufferView": 2,
      "componentType": 5123,
      "count": 24,
      "type": "SCALAR",
      "byteOffset": 214026
    },
    {
      "bufferView": 2,
      "componentType": 5123,
      "count": 258,
      "type": "SCALAR",
      "byteOffset": 214074
    },
    {
      "bufferView": 2,
      "componentType": 5123,
      "count": 156,
      "type": "SCALAR",
      "byteOffset": 214590
    },
    {
      "bufferView": 2,
      "componentType": 5123,
      "count": 60,
      "type": "SCALAR",
      "byteOffset": 214902
    },
    {
      "bufferView": 2,
      "componentType": 5123,
      "count": 144,
      "type": "SCALAR",
      "byteOffset": 215022
    },
    {
      "bufferView": 2,
      "componentType": 5123,
      "count": 600,
      "type": "SCALAR",
      "byteOffset": 215310
    },
    {
      "bufferView": 2,
      "componentType": 5123,
      "count": 1746,
      "type": "SCALAR",
      "byteOffset": 216510
    },
    {
      "bufferView": 2,
      "componentType": 5123,
      "count": 1218,
      "type": "SCALAR",
      "byteOffset": 220002
    },
    {
      "bufferView": 2,
      "componentType": 5123,
      "count": 36,
      "type": "SCALAR",
      "byteOffset": 222438
    },
    {
      "bufferView": 2,
      "componentType": 5123,
      "count": 138,
      "type": "SCALAR",
      "byteOffset": 222510
    },
    {
      "bufferView": 2,
      "componentType": 5123,
      "count": 6138,
      "type": "SCALAR",
      "byteOffset": 222786
    },
    {
      "bufferView": 2,
      "componentType": 5123,
      "count": 1647,
      "type": "SCALAR",
      "byteOffset": 235062
    },
    {
      "bufferView": 2,
      "componentType": 5123,
      "count": 693,
      "type": "SCALAR",
      "byteOffset": 238356
    },
    {
      "bufferView": 2,
      "componentType": 5123,
      "count": 216,
      "type": "SCALAR",
      "byteOffset": 239742
    },
    {
      "bufferView": 2,
      "componentType": 5123,
      "count": 147,
      "type": "SCALAR",
      "byteOffset": 240174
    },
    {
      "bufferView": 2,
      "componentType": 5123,
      "count": 2376,
      "type": "SCALAR",
      "byteOffset": 240468
    },
    {
      "bufferView": 2,
      "componentType": 5123,
      "count": 2376,
      "type": "SCALAR",
      "byteOffset": 245220
    },
    {
      "bufferView": 2,
      "componentType": 5123,
      "count": 1221,
      "type": "SCALAR",
      "byteOffset": 249972
    },
    {
      "bufferView": 2,
      "componentType": 5123,
      "count": 1221,
      "type": "SCALAR",
      "byteOffset": 252414
    },
    {
      "bufferView": 2,
      "componentType": 5123,
      "count": 2229,
      "type": "SCALAR",
      "byteOffset": 254856
    },
    {
      "bufferView": 2,
      "componentType": 5123,
      "count": 1125,
      "type": "SCALAR",
      "byteOffset": 259314
    },
    {
      "bufferView": 2,
      "componentType": 5123,
      "count": 24,
      "type": "SCALAR",
      "byteOffset": 261564
    },
    {
      "bufferView": 2,
      "componentType": 5123,
      "count": 66,
      "type": "SCALAR",
      "byteOffset": 261612
    },
    {
      "bufferView": 2,
      "componentType": 5123,
      "count": 2376,
      "type": "SCALAR",
      "byteOffset": 261744
    },
    {
      "bufferView": 2,
      "componentType": 5123,
      "count": 7872,
      "type": "SCALAR",
      "byteOffset": 266496
    },
    {
      "bufferView": 2,
      "componentType": 5123,
      "count": 3978,
      "type": "SCALAR",
      "byteOffset": 282240
    },
    {
      "bufferView": 2,
      "componentType": 5123,
      "count": 2376,
      "type": "SCALAR",
      "byteOffset": 290196
    },
    {
      "bufferView": 2,
      "componentType": 5123,
      "count": 7872,
      "type": "SCALAR",
      "byteOffset": 294948
    },
    {
      "bufferView": 2,
      "componentType": 5123,
      "count": 3978,
      "type": "SCALAR",
      "byteOffset": 310692
    },
    {
      "bufferView": 2,
      "componentType": 5123,
      "count": 2376,
      "type": "SCALAR",
      "byteOffset": 318648
    },
    {
      "bufferView": 2,
      "componentType": 5123,
      "count": 7872,
      "type": "SCALAR",
      "byteOffset": 323400
    },
    {
      "bufferView": 2,
      "componentType": 5123,
      "count": 3978,
      "type": "SCALAR",
      "byteOffset": 339144
    },
    {
      "bufferView": 2,
      "componentType": 5123,
      "count": 2376,
      "type": "SCALAR",
      "byteOffset": 347100
    },
    {
      "bufferView": 2,
      "componentType": 5123,
      "count": 7872,
      "type": "SCALAR",
      "byteOffset": 351852
    },
    {
      "bufferView": 2,
      "componentType": 5123,
      "count": 3978,
      "type": "SCALAR",
      "byteOffset": 367596
    },
    {
      "bufferView": 2,
      "componentType": 5123,
      "count": 6,
      "type": "SCALAR",
      "byteOffset": 375552
    },
    {
      "bufferView": 2,
      "componentType": 5123,
      "count": 66,
      "type": "SCALAR",
      "byteOffset": 375564
    }
  ],
  "bufferViews": [
    {
      "buffer": 0,
      "byteLength": 619020,
      "target": 34962,
      "byteStride": 12
    },
    {
      "buffer": 0,
      "byteOffset": 619020,
      "byteLength": 619020,
      "target": 34962,
      "byteStride": 12
    },
    {
      "buffer": 0,
      "byteOffset": 1238040,
      "byteLength": 375696,
      "target": 34963
    }
  ],
  "buffers": [
    {
      "uri": "data:application/octet-stream;base64,",
      "byteLength": 1613736
    }
  ]
}