<?xml version="1.0" encoding="utf-8"?>
<!-- Generator: Adobe Illustrator 19.0.0, SVG Export Plug-In . SVG Version: 6.00 Build 0)  -->
<svg version="1.1" id="Layer_1" xmlns="http://www.w3.org/2000/svg" xmlns:xlink="http://www.w3.org/1999/xlink" x="0px" y="0px"
	 width="500px" height="164px" viewBox="0 0 500 164" style="enable-background:new 0 0 500 164;" xml:space="preserve">
<style type="text/css">
	.st0{fill:#FFFFFF;}
</style>
<g id="XMLID_2_">
	<path id="XMLID_26_" d="M500,141.451c0,12.206-9.893,22.105-22.097,22.105h-455.8C9.897,163.556,0,153.658,0,141.451V22.102
		C0,9.897,9.897,0,22.103,0h455.8C490.107,0,500,9.897,500,22.102V141.451z"/>
	<g id="XMLID_22_">
		<path id="XMLID_25_" class="st0" d="M130.386,108.11c-2.647,5.867-3.914,8.485-7.321,13.67
			c-4.756,7.24-11.458,16.255-19.761,16.331c-7.381,0.068-9.275-4.803-19.29-4.748c-10.014,0.054-12.106,4.833-19.487,4.766
			c-8.304-0.077-14.655-8.217-19.41-15.456C31.82,102.431,30.43,78.675,38.63,66.047c5.829-8.976,15.021-14.229,23.667-14.229
			c8.802,0,14.335,4.828,21.612,4.828c7.059,0,11.362-4.835,21.538-4.835c7.691,0,15.842,4.187,21.65,11.431
			C108.07,73.668,111.16,100.845,130.386,108.11z"/>
		<g id="XMLID_23_">
			<path id="XMLID_24_" class="st0" d="M97.728,43.724c3.695-4.745,6.505-11.448,5.486-18.297
				c-6.039,0.416-13.105,4.258-17.23,9.268c-3.744,4.549-6.834,11.294-5.631,17.848C86.946,52.746,93.767,48.809,97.728,43.724z"/>
		</g>
	</g>
	<g id="XMLID_3_">
		<path id="XMLID_19_" class="st0" d="M170.896,66.28l-19.048,56.07h8.723l5.687-17.216h18.443l5.848,17.216h8.964l-19.13-56.07
			H170.896z M175.416,75.499c0.643,2.503,1.337,5.102,2.229,7.91l5.134,14.866h-14.61l5.062-14.964
			C174.002,80.886,174.733,78.265,175.416,75.499z"/>
		<path id="XMLID_16_" class="st0" d="M224.162,80.815c-5.778,0-10.406,2.23-13.487,6.47l-0.338-5.577h-7.76l0.047,0.713
			c0.228,3.474,0.324,7.298,0.324,12.789v43.217h8.483v-20.168c2.632,3.149,6.834,4.983,11.596,4.983
			c4.959,0,9.526-1.942,12.854-5.465c3.717-3.927,5.676-9.573,5.676-16.317c0-5.96-1.702-11.113-4.929-14.899
			C233.469,82.855,229.043,80.815,224.162,80.815z M222.048,87.838c7.562,0,10.947,7.005,10.947,13.947
			c0,8.953-4.318,14.515-11.269,14.515c-4.745,0-8.85-3.23-9.994-7.872c-0.197-0.719-0.301-1.672-0.301-2.746V98.86
			c0-0.618,0.138-1.367,0.269-2.094c0.042-0.232,0.088-0.464,0.122-0.689C213.088,91.224,217.287,87.838,222.048,87.838z"/>
		<path id="XMLID_13_" class="st0" d="M267.845,80.815c-5.776,0-10.404,2.23-13.488,6.47l-0.338-5.577h-7.757l0.043,0.713
			c0.23,3.478,0.328,7.298,0.328,12.789v43.217h8.483v-20.168c2.632,3.149,6.831,4.983,11.592,4.983
			c4.959,0,9.527-1.942,12.861-5.465c3.71-3.927,5.673-9.573,5.673-16.317c0-5.96-1.705-11.113-4.931-14.899
			C277.153,82.855,272.727,80.815,267.845,80.815z M265.734,87.838c7.559,0,10.944,7.005,10.944,13.947
			c0,8.953-4.321,14.515-11.268,14.515c-4.743,0-8.852-3.23-9.994-7.872c-0.197-0.719-0.299-1.672-0.299-2.746V98.86
			c0-0.621,0.137-1.374,0.27-2.101c0.042-0.228,0.084-0.457,0.123-0.681C256.77,91.224,260.972,87.838,265.734,87.838z"/>
		<path id="XMLID_12_" class="st0" d="M322.572,90.037c-7.917-3.066-10.453-5.477-10.453-9.932c0-3.751,2.98-7.534,9.642-7.534
			c5.496,0,9.011,1.911,9.958,2.5l0.719,0.444l2.394-7.079l-0.474-0.277c-1.421-0.833-5.471-2.771-12.353-2.771
			c-10.818,0-18.374,6.387-18.374,15.528c0,7.372,4.731,12.526,14.89,16.219c7.199,2.691,9.879,5.447,9.879,10.173
			c0,5.349-4.134,8.668-10.783,8.668c-4.331,0-8.787-1.263-12.227-3.467l-0.736-0.472l-2.277,7.243l0.418,0.277
			c3.203,2.139,9.23,3.686,14.337,3.686c14.58,0,19.75-8.89,19.75-16.503C336.881,98.889,332.737,94.049,322.572,90.037z"/>
		<path id="XMLID_11_" class="st0" d="M352.152,72.048l-8.32,2.612v7.048h-6.091v6.78h6.091v20.768c0,5.02,0.96,8.539,2.937,10.763
			c1.896,2.078,4.811,3.222,8.208,3.222c3.206,0,5.485-0.634,6.557-1.013l0.475-0.168l-0.406-6.792l-0.814,0.25
			c-1.073,0.329-2.173,0.456-3.946,0.456c-3.287,0-4.691-2.08-4.691-6.962V88.487h10.233v-6.78h-10.233V72.048z"/>
		<path id="XMLID_8_" class="st0" d="M383.408,80.815c-11.869,0-20.158,8.86-20.158,21.538c0,12.3,8.021,20.889,19.508,20.889h0.079
			c9.711,0,20.158-6.765,20.158-21.619c0-6.04-1.868-11.227-5.406-15.005C394.031,82.823,389.124,80.815,383.408,80.815z
			 M383.163,87.512c7.631,0,11.106,7.44,11.106,14.355c0,8.504-4.741,14.676-11.267,14.676h-0.082
			c-6.433,0-11.104-6.069-11.104-14.431C371.815,94.846,375.325,87.512,383.163,87.512z"/>
		<path id="XMLID_7_" class="st0" d="M428.978,81.209l-0.509-0.129c-0.747-0.186-1.357-0.265-2.11-0.265
			c-4.438,0-8.42,2.613-10.636,6.829l-0.249-5.937h-7.613l0.049,0.713c0.226,3.358,0.32,7.128,0.32,12.216l-0.079,27.713h8.483
			v-21.62c0-1.177,0.08-2.29,0.234-3.289c0.956-5.193,4.461-8.549,8.925-8.549c0.868,0,1.552,0.071,2.276,0.142l0.908,0.094V81.209z
			"/>
		<path id="XMLID_4_" class="st0" d="M448.05,80.734c-11.293,0-19.181,9.023-19.181,21.944c0,12.441,7.847,20.483,19.993,20.483
			c6.387,0,10.831-1.402,13.431-2.577l0.511-0.23l-1.63-6.321l-0.708,0.285c-2.312,0.941-5.385,1.901-10.628,1.901
			c-3.686,0-12.186-1.216-12.706-12.3l27.381,0.082l0.11-0.542c0.172-0.862,0.255-2.024,0.255-3.541
			C464.878,91.069,460.472,80.734,448.05,80.734z M447.485,87.188c2.583,0,4.68,0.799,6.228,2.375
			c2.441,2.484,2.868,6.142,2.922,7.897h-19.348C438.075,92.563,441.14,87.188,447.485,87.188z"/>
	</g>
</g>
</svg>
