<?xml version="1.0" encoding="utf-8"?>
<!-- Generator: Adobe Illustrator 19.0.0, SVG Export Plug-In . SVG Version: 6.00 Build 0)  -->
<svg version="1.1" id="Layer_1" xmlns="http://www.w3.org/2000/svg" xmlns:xlink="http://www.w3.org/1999/xlink" x="0px" y="0px"
	 width="500px" height="164px" viewBox="0 0 500 164" style="enable-background:new 0 0 500 164;" xml:space="preserve">
<style type="text/css">
	.st0{fill:#010101;}
	.st1{clip-path:url(#XMLID_3_);fill:url(#XMLID_4_);}
	.st2{clip-path:url(#XMLID_5_);fill:url(#XMLID_6_);}
	.st3{clip-path:url(#XMLID_7_);fill:url(#XMLID_8_);}
	.st4{clip-path:url(#XMLID_9_);fill:url(#XMLID_10_);}
	.st5{fill:#F9F9FA;}
</style>
<g id="XMLID_78_">
	<path id="XMLID_99_" class="st0" d="M500,141.451c0,12.206-9.894,22.105-22.098,22.105H22.103C9.897,163.556,0,153.658,0,141.451
		V22.103C0,9.898,9.897,0,22.103,0h455.799C490.106,0,500,9.898,500,22.103V141.451z"/>
	<g id="XMLID_79_">
		<g id="PLAY_1_">
			<g id="XMLID_140_">
				<defs>
					<path id="XMLID_142_" d="M108.356,66.674L85.811,53.658c0,0-41.073-23.716-43.487-25.11c-2.415-1.394-4.82-0.55-4.82,2.364
						c0,4.853,0,50.637,0,50.637s0,49.479,0,51.664c0,2.184,1.72,3.126,3.817,1.915c2.097-1.212,44.49-25.689,44.49-25.689
						l22.544-13.016c0,0,19.129-11.043,21.671-12.511c2.543-1.469,2.298-3.484,0.153-4.639
						C128.034,78.118,108.356,66.674,108.356,66.674z"/>
				</defs>
				<clipPath id="XMLID_3_">
					<use xlink:href="#XMLID_142_"  style="overflow:visible;"/>
				</clipPath>
				
					<linearGradient id="XMLID_4_" gradientUnits="userSpaceOnUse" x1="65.4295" y1="767.831" x2="65.4295" y2="657.072" gradientTransform="matrix(1 0 0 -1 0 794)">
					<stop  offset="0" style="stop-color:#277CB0"/>
					<stop  offset="0.2863" style="stop-color:#4B93B6"/>
					<stop  offset="0.767" style="stop-color:#79BDBB"/>
					<stop  offset="1" style="stop-color:#89CFBD"/>
				</linearGradient>
				<polygon id="XMLID_98_" class="st1" points="37.504,26.169 37.504,81.549 37.504,136.928 93.355,81.55 				"/>
			</g>
			<g id="XMLID_137_">
				<defs>
					<path id="XMLID_139_" d="M108.356,66.674L85.811,53.658c0,0-41.073-23.716-43.487-25.11c-2.415-1.394-4.82-0.55-4.82,2.364
						c0,4.853,0,50.637,0,50.637s0,49.479,0,51.664c0,2.184,1.72,3.126,3.817,1.915c2.097-1.212,44.49-25.689,44.49-25.689
						l22.544-13.016c0,0,19.129-11.043,21.671-12.511c2.543-1.469,2.298-3.484,0.153-4.639
						C128.034,78.118,108.356,66.674,108.356,66.674z"/>
				</defs>
				<clipPath id="XMLID_5_">
					<use xlink:href="#XMLID_139_"  style="overflow:visible;"/>
				</clipPath>
				
					<linearGradient id="XMLID_6_" gradientUnits="userSpaceOnUse" x1="37.504" y1="740.342" x2="108.356" y2="740.342" gradientTransform="matrix(1 0 0 -1 0 794)">
					<stop  offset="0" style="stop-color:#55C1AE"/>
					<stop  offset="1" style="stop-color:#DEE99B"/>
				</linearGradient>
				<polygon id="XMLID_97_" class="st2" points="108.356,66.674 85.811,53.658 37.504,25.766 37.504,26.169 93.355,81.55 				"/>
			</g>
			<g id="XMLID_134_">
				<defs>
					<path id="XMLID_136_" d="M108.356,66.674L85.811,53.658c0,0-41.073-23.716-43.487-25.11c-2.415-1.394-4.82-0.55-4.82,2.364
						c0,4.853,0,50.637,0,50.637s0,49.479,0,51.664c0,2.184,1.72,3.126,3.817,1.915c2.097-1.212,44.49-25.689,44.49-25.689
						l22.544-13.016c0,0,19.129-11.043,21.671-12.511c2.543-1.469,2.298-3.484,0.153-4.639
						C128.034,78.118,108.356,66.674,108.356,66.674z"/>
				</defs>
				<clipPath id="XMLID_7_">
					<use xlink:href="#XMLID_136_"  style="overflow:visible;"/>
				</clipPath>
				
					<linearGradient id="XMLID_8_" gradientUnits="userSpaceOnUse" x1="72.9295" y1="712.45" x2="72.9295" y2="656.669" gradientTransform="matrix(1 0 0 -1 0 794)">
					<stop  offset="0" style="stop-color:#EC423D"/>
					<stop  offset="0.1668" style="stop-color:#DA4553"/>
					<stop  offset="0.5748" style="stop-color:#B1497B"/>
					<stop  offset="0.8619" style="stop-color:#964C93"/>
					<stop  offset="1" style="stop-color:#8A4B9D"/>
				</linearGradient>
				<polygon id="XMLID_96_" class="st3" points="37.504,136.928 37.504,137.331 85.811,109.439 108.355,96.423 93.355,81.55 				"/>
			</g>
			<g id="XMLID_131_">
				<defs>
					<path id="XMLID_133_" d="M108.356,66.674L85.811,53.658c0,0-41.073-23.716-43.487-25.11c-2.415-1.394-4.82-0.55-4.82,2.364
						c0,4.853,0,50.637,0,50.637s0,49.479,0,51.664c0,2.184,1.72,3.126,3.817,1.915c2.097-1.212,44.49-25.689,44.49-25.689
						l22.544-13.016c0,0,19.129-11.043,21.671-12.511c2.543-1.469,2.298-3.484,0.153-4.639
						C128.034,78.118,108.356,66.674,108.356,66.674z"/>
				</defs>
				<clipPath id="XMLID_9_">
					<use xlink:href="#XMLID_133_"  style="overflow:visible;"/>
				</clipPath>
				
					<linearGradient id="XMLID_10_" gradientUnits="userSpaceOnUse" x1="113.738" y1="727.326" x2="113.738" y2="697.577" gradientTransform="matrix(1 0 0 -1 0 794)">
					<stop  offset="0" style="stop-color:#F58979"/>
					<stop  offset="0.1194" style="stop-color:#F6917A"/>
					<stop  offset="0.7128" style="stop-color:#FCB878"/>
					<stop  offset="1" style="stop-color:#FEC975"/>
				</linearGradient>
				<polygon id="XMLID_95_" class="st4" points="108.356,66.674 93.355,81.55 108.355,96.423 134.121,81.549 				"/>
			</g>
		</g>
		<g id="XMLID_90_">
			<path id="XMLID_94_" class="st5" d="M389.124,103.2c-2.097,0-4.012-0.387-5.745-1.16c-1.734-0.774-3.189-1.965-4.366-3.57h-0.352
				c0.235,1.881,0.352,3.664,0.352,5.348v13.254h-4.876V70.401h3.967l0.675,4.409h0.235c1.255-1.764,2.716-3.037,4.381-3.82
				c1.665-0.784,3.576-1.176,5.73-1.176c4.272,0,7.569,1.461,9.89,4.38c2.322,2.919,3.484,7.015,3.484,12.284
				c0,5.291-1.181,9.399-3.54,12.331C396.595,101.736,393.319,103.2,389.124,103.2z M388.418,73.957
				c-3.292,0-5.671,0.912-7.141,2.733c-1.469,1.822-2.224,4.723-2.265,8.701v1.086c0,4.527,0.755,7.765,2.265,9.714
				c1.509,1.949,3.929,2.923,7.258,2.923c2.784,0,4.964-1.126,6.542-3.379c1.576-2.252,2.365-5.358,2.365-9.318
				c0-4.015-0.789-7.098-2.365-9.243C393.5,75.029,391.279,73.957,388.418,73.957z"/>
			<path id="XMLID_93_" class="st5" d="M413.793,102.612h-4.878v-45.73h4.878V102.612z"/>
			<path id="XMLID_92_" class="st5" d="M441.841,102.612l-0.971-4.585h-0.235c-1.607,2.02-3.209,3.387-4.806,4.1
				c-1.596,0.717-3.59,1.073-5.98,1.073c-3.193,0-5.696-0.823-7.509-2.469s-2.719-3.986-2.719-7.023
				c0-6.504,5.203-9.913,15.605-10.228l5.468-0.177v-1.998c0-2.528-0.544-4.395-1.632-5.598c-1.086-1.207-2.828-1.808-5.216-1.808
				c-2.685,0-5.723,0.823-9.111,2.469l-1.5-3.733c1.589-0.862,3.326-1.538,5.218-2.028c1.89-0.49,3.785-0.735,5.687-0.735
				c3.84,0,6.685,0.852,8.538,2.557c1.85,1.705,2.776,4.438,2.776,8.2v21.983C445.454,102.612,441.841,102.612,441.841,102.612z
				 M430.821,99.174c3.036,0,5.42-0.832,7.156-2.497c1.733-1.665,2.602-3.997,2.602-6.997v-2.909l-4.881,0.204
				c-3.879,0.139-6.674,0.74-8.39,1.81c-1.714,1.067-2.571,2.728-2.571,4.981c0,1.762,0.533,3.105,1.602,4.025
				C427.406,98.714,428.898,99.174,430.821,99.174z"/>
			<path id="XMLID_91_" class="st5" d="M448.288,70.401h5.23l7.054,18.369c1.547,4.194,2.509,7.22,2.882,9.082h0.235
				c0.255-1.001,0.789-2.709,1.601-5.131c0.813-2.42,3.474-9.859,7.979-22.321h5.233l-13.844,36.678
				c-1.371,3.625-2.973,6.197-4.807,7.717c-1.831,1.517-4.08,2.275-6.743,2.275c-1.49,0-2.959-0.166-4.41-0.498v-3.908
				c1.077,0.235,2.284,0.353,3.616,0.353c3.351,0,5.739-1.881,7.171-5.644l1.792-4.584L448.288,70.401z"/>
		</g>
		<g id="XMLID_80_">
			<path id="XMLID_89_" class="st5" d="M298.75,73.394c1.548,1.281,4.782,3.974,4.782,9.097c0,4.982-2.83,7.345-5.66,9.565
				c-0.876,0.875-1.886,1.821-1.886,3.305c0,1.479,1.01,2.288,1.754,2.895l2.427,1.883c2.964,2.494,5.656,4.786,5.656,9.437
				c0,6.332-6.132,12.731-17.717,12.731c-9.771,0-14.485-4.647-14.485-9.636c0-2.425,1.208-5.859,5.188-8.219
				c4.174-2.56,9.838-2.893,12.868-3.101c-0.946-1.211-2.022-2.492-2.022-4.577c0-1.144,0.338-1.819,0.674-2.631
				c-0.744,0.069-1.484,0.136-2.158,0.136c-7.139,0-11.182-5.323-11.182-10.576c0-3.1,1.417-6.537,4.31-9.028
				c3.842-3.167,8.423-3.707,12.064-3.707h13.876l-4.312,2.426C302.927,73.394,298.75,73.394,298.75,73.394z M293.965,103.31
				c-0.538-0.071-0.877-0.071-1.547-0.071c-0.606,0-4.249,0.137-7.076,1.084c-1.482,0.535-5.795,2.152-5.795,6.937
				c0,4.781,4.651,8.222,11.861,8.222c6.464,0,9.903-3.105,9.903-7.279C301.311,108.761,299.087,106.949,293.965,103.31z
				 M295.92,90.507c1.547-1.551,1.68-3.705,1.68-4.919c0-4.85-2.895-12.395-8.486-12.395c-1.754,0-3.638,0.874-4.717,2.224
				c-1.144,1.415-1.484,3.231-1.484,4.985c0,4.514,2.628,11.992,8.425,11.992C293.023,92.394,294.837,91.586,295.92,90.507z"/>
			<path id="XMLID_88_" class="st5" d="M256.335,102.231c-10.694,0-16.411-8.342-16.411-15.877c0-8.812,7.196-16.342,17.424-16.342
				c9.883,0,16.072,7.733,16.072,15.874C273.42,93.82,267.302,102.231,256.335,102.231z M264.741,96.784
				c1.617-2.155,2.021-4.844,2.021-7.469c0-5.921-2.825-17.22-11.166-17.22c-2.219,0-4.438,0.876-6.052,2.291
				c-2.623,2.351-3.097,5.312-3.097,8.208c0,6.654,3.296,17.615,11.438,17.615C260.507,100.209,263.198,98.934,264.741,96.784z"/>
			<path id="XMLID_87_" class="st5" d="M219.877,102.231c-10.696,0-16.414-8.342-16.414-15.877c0-8.812,7.199-16.342,17.424-16.342
				c9.886,0,16.074,7.733,16.074,15.874C236.961,93.82,230.842,102.231,219.877,102.231z M228.285,96.784
				c1.614-2.155,2.019-4.844,2.019-7.469c0-5.921-2.827-17.22-11.168-17.22c-2.218,0-4.439,0.876-6.052,2.291
				c-2.623,2.351-3.094,5.312-3.094,8.208c0,6.654,3.294,17.615,11.437,17.615C224.05,100.209,226.739,98.934,228.285,96.784z"/>
			<path id="XMLID_86_" class="st5" d="M198.325,101.177l-9.671,2.232c-3.924,0.61-7.44,1.147-11.157,1.147
				c-18.667,0-25.765-13.729-25.765-24.482c0-13.118,10.074-25.287,27.322-25.287c3.653,0,7.166,0.539,10.344,1.42
				c5.072,1.42,7.439,3.177,8.927,4.193l-5.615,5.342l-2.366,0.538l1.691-2.705c-2.298-2.23-6.494-6.354-14.471-6.354
				c-10.686,0-18.734,8.118-18.734,19.952c0,12.71,9.199,24.68,23.938,24.68c4.333,0,6.56-0.878,8.59-1.692V89.274l-10.21,0.54
				l5.408-2.911h14.338l-1.757,1.69c-0.477,0.408-0.542,0.544-0.678,1.081c-0.07,0.61-0.134,2.573-0.134,3.249V101.177z"/>
			<path id="XMLID_85_" class="st5" d="M320.124,99.23c-2.233-0.203-2.7-0.607-2.7-3.248v-0.745V57.706
				c0.013-0.146,0.023-0.295,0.036-0.436c0.273-2.366,0.948-2.771,3.047-3.99h-9.674l-5.074,2.435h5.17v0.031l-0.004-0.025v39.517
				v2.234c0,1.35-0.267,1.555-1.824,3.582h11.971l2.502-1.484C322.427,99.43,321.275,99.364,320.124,99.23z"/>
			<path id="XMLID_84_" class="st5" d="M347.642,99.851c-0.736,0.404-1.475,0.876-2.211,1.21c-2.221,1.007-4.503,1.276-6.521,1.276
				c-2.144,0-5.504-0.138-8.933-2.62c-4.765-3.36-6.847-9.136-6.847-14.172c0-10.408,8.462-15.512,15.379-15.512
				c2.418,0,4.906,0.603,6.921,1.882c3.355,2.212,4.228,5.1,4.695,6.645l-15.778,6.383l-5.172,0.403
				c1.676,8.529,7.452,13.495,13.835,13.495c3.424,0,5.91-1.207,8.193-2.347L347.642,99.851z M341.332,79.835
				c1.273-0.469,1.946-0.873,1.946-1.812c0-2.684-3.02-5.776-6.65-5.776c-2.689,0-7.723,2.083-7.723,9.334
				c0,1.142,0.135,2.35,0.204,3.563L341.332,79.835z"/>
			<g id="XMLID_81_">
				<path id="XMLID_83_" class="st5" d="M354.125,70.492v4.431h-0.538v-4.431h-1.466v-0.459h3.47v0.459H354.125z"/>
				<path id="XMLID_82_" class="st5" d="M360.166,74.923V70.45h-0.025l-1.365,4.473h-0.421l-1.377-4.473h-0.017v4.473h-0.489v-4.891
					h0.838l1.246,3.953h0.017l1.227-3.953h0.85v4.891H360.166z"/>
			</g>
		</g>
	</g>
</g>
</svg>
